<svg width="495" height="194" viewBox="0 0 495 194" fill="none" xmlns="http://www.w3.org/2000/svg">
<path d="M3.01938 128.384V147.34H0.5V128.384H3.01938ZM14.4937 128.384L6.59612 137.224L2.15783 141.82L1.74011 139.138L5.08188 135.467L11.4652 128.384H14.4937ZM12.0657 147.34L5.02967 138.097L6.53085 136.105L15.068 147.34H12.0657Z" fill="#7C7C7C"/>
<path d="M29.3619 145.296V147.34H19.2975V145.296H29.3619ZM19.8066 128.384V147.34H17.2872V128.384H19.8066ZM28.0305 136.534V138.578H19.2975V136.534H28.0305ZM29.2314 128.384V130.441H19.2975V128.384H29.2314Z" fill="#7C7C7C"/>
<path d="M33.3564 128.384L38.2907 137.901L43.2381 128.384H46.0969L39.5439 140.258V147.34H37.0245V140.258L30.4715 128.384H33.3564Z" fill="#7C7C7C"/>
<path d="M53.7725 141.612L57.5451 128.384H59.3726L58.3153 133.527L54.2555 147.34H52.4411L53.7725 141.612ZM49.8695 128.384L52.8718 141.351L53.7725 147.34H51.9711L47.3631 128.384H49.8695ZM64.2547 141.338L67.1918 128.384H69.7112L65.1163 147.34H63.3149L64.2547 141.338ZM59.6468 128.384L63.3149 141.612L64.6464 147.34H62.8319L58.9157 133.527L57.8453 128.384H59.6468Z" fill="#7C7C7C"/>
<path d="M87.1381 137.263V138.461C87.1381 139.885 86.9596 141.16 86.6028 142.289C86.246 143.417 85.7326 144.376 85.0625 145.166C84.3924 145.956 83.5874 146.559 82.6475 146.976C81.7164 147.392 80.6721 147.6 79.5146 147.6C78.392 147.6 77.3608 147.392 76.4209 146.976C75.4897 146.559 74.6804 145.956 73.9929 145.166C73.3141 144.376 72.7876 143.417 72.4134 142.289C72.0392 141.16 71.8521 139.885 71.8521 138.461V137.263C71.8521 135.84 72.0348 134.568 72.4003 133.449C72.7745 132.321 73.301 131.361 73.9798 130.572C74.6586 129.773 75.4636 129.166 76.3948 128.749C77.3346 128.332 78.3659 128.124 79.4885 128.124C80.646 128.124 81.6903 128.332 82.6214 128.749C83.5613 129.166 84.3663 129.773 85.0364 130.572C85.7152 131.361 86.233 132.321 86.5898 133.449C86.9553 134.568 87.1381 135.84 87.1381 137.263ZM84.6448 138.461V137.237C84.6448 136.109 84.5273 135.111 84.2923 134.243C84.0661 133.375 83.731 132.646 83.2872 132.056C82.8434 131.466 82.2994 131.019 81.6555 130.715C81.0202 130.411 80.2979 130.259 79.4885 130.259C78.7053 130.259 77.996 130.411 77.3608 130.715C76.7342 131.019 76.1946 131.466 75.7421 132.056C75.2983 132.646 74.9545 133.375 74.7108 134.243C74.4672 135.111 74.3453 136.109 74.3453 137.237V138.461C74.3453 139.598 74.4672 140.605 74.7108 141.482C74.9545 142.349 75.3026 143.083 75.7551 143.682C76.2164 144.272 76.7603 144.719 77.3869 145.023C78.0221 145.326 78.7314 145.478 79.5146 145.478C80.3327 145.478 81.0593 145.326 81.6946 145.023C82.3299 144.719 82.8651 144.272 83.3002 143.682C83.7441 143.083 84.0791 142.349 84.3054 141.482C84.5316 140.605 84.6448 139.598 84.6448 138.461Z" fill="#7C7C7C"/>
<path d="M90.9106 128.384H97.2025C98.6297 128.384 99.835 128.601 100.818 129.035C101.811 129.469 102.563 130.112 103.077 130.962C103.599 131.804 103.86 132.841 103.86 134.074C103.86 134.942 103.682 135.736 103.325 136.456C102.977 137.168 102.472 137.775 101.811 138.279C101.158 138.774 100.375 139.142 99.4608 139.385L98.7559 139.659H92.8426L92.8165 137.615H97.2809C98.1859 137.615 98.9387 137.459 99.5392 137.146C100.14 136.825 100.592 136.395 100.897 135.857C101.201 135.319 101.354 134.725 101.354 134.074C101.354 133.345 101.21 132.707 100.923 132.16C100.636 131.613 100.183 131.192 99.5653 130.897C98.9561 130.593 98.1685 130.441 97.2025 130.441H93.43V147.34H90.9106V128.384ZM102.019 147.34L97.3983 138.748L100.022 138.735L104.708 147.184V147.34H102.019Z" fill="#7C7C7C"/>
<path d="M112.528 147.34H108.559L108.585 145.296H112.528C113.885 145.296 115.017 145.014 115.922 144.45C116.827 143.877 117.506 143.079 117.958 142.054C118.419 141.022 118.65 139.815 118.65 138.435V137.276C118.65 136.191 118.519 135.228 118.258 134.386C117.997 133.536 117.614 132.82 117.11 132.238C116.605 131.648 115.987 131.201 115.256 130.897C114.534 130.593 113.703 130.441 112.763 130.441H108.481V128.384H112.763C114.007 128.384 115.143 128.593 116.17 129.009C117.197 129.417 118.08 130.012 118.82 130.793C119.568 131.565 120.142 132.503 120.543 133.605C120.943 134.699 121.143 135.931 121.143 137.302V138.435C121.143 139.806 120.943 141.043 120.543 142.145C120.142 143.239 119.564 144.172 118.807 144.945C118.058 145.717 117.153 146.312 116.091 146.728C115.038 147.136 113.85 147.34 112.528 147.34ZM109.904 128.384V147.34H107.384V128.384H109.904Z" fill="#7C7C7C"/>
<path d="M124.459 146.064C124.459 145.656 124.585 145.313 124.837 145.036C125.098 144.749 125.473 144.606 125.96 144.606C126.447 144.606 126.817 144.749 127.07 145.036C127.331 145.313 127.461 145.656 127.461 146.064C127.461 146.463 127.331 146.802 127.07 147.08C126.817 147.357 126.447 147.496 125.96 147.496C125.473 147.496 125.098 147.357 124.837 147.08C124.585 146.802 124.459 146.463 124.459 146.064ZM124.472 134.568C124.472 134.161 124.598 133.818 124.85 133.54C125.112 133.254 125.486 133.11 125.973 133.11C126.46 133.11 126.83 133.254 127.083 133.54C127.344 133.818 127.474 134.161 127.474 134.568C127.474 134.968 127.344 135.306 127.083 135.584C126.83 135.862 126.46 136.001 125.973 136.001C125.486 136.001 125.112 135.862 124.85 135.584C124.598 135.306 124.472 134.968 124.472 134.568Z" fill="#7C7C7C"/>
<path d="M11.4417 12.9864H5.38795L5.35532 10.0083H10.6421C11.5341 10.0083 12.2902 9.87814 12.9102 9.61776C13.5411 9.34653 14.0198 8.96138 14.3461 8.46232C14.6725 7.95241 14.8356 7.33944 14.8356 6.62339C14.8356 5.83141 14.6833 5.18588 14.3788 4.68682C14.0742 4.18776 13.6064 3.82432 12.9755 3.59649C12.3554 3.36866 11.5613 3.25474 10.5932 3.25474H6.62807V23.6945H2.53244V0H10.5932C11.8985 0 13.0625 0.124765 14.085 0.374295C15.1185 0.623825 15.9942 1.01439 16.7121 1.546C17.441 2.06676 17.9903 2.72856 18.3602 3.53139C18.7409 4.33423 18.9313 5.28895 18.9313 6.39556C18.9313 7.37199 18.6974 8.26704 18.2296 9.08072C17.7619 9.88356 17.0711 10.5399 16.1573 11.0498C15.2436 11.5598 14.1068 11.8635 12.747 11.9612L11.4417 12.9864ZM11.2622 23.6945H4.09889L5.94274 20.456H11.2622C12.1868 20.456 12.9592 20.3041 13.5792 20.0004C14.1993 19.6857 14.6616 19.2572 14.9662 18.7148C15.2816 18.1614 15.4394 17.5159 15.4394 16.7782C15.4394 16.0079 15.3034 15.3407 15.0314 14.7765C14.7595 14.2015 14.3298 13.7621 13.7424 13.4583C13.155 13.1437 12.3881 12.9864 11.4417 12.9864H6.84019L6.87282 10.0083H12.8613L13.7913 11.1312C15.0967 11.1746 16.1682 11.4621 17.0058 11.9937C17.8543 12.5253 18.4853 13.2142 18.8986 14.0605C19.312 14.9067 19.5187 15.818 19.5187 16.7945C19.5187 18.3025 19.1869 19.5664 18.5233 20.5862C17.8706 21.606 16.9297 22.3818 15.7005 22.9134C14.4712 23.4341 12.9918 23.6945 11.2622 23.6945Z" fill="#151515"/>
<path d="M40.8682 20.456V23.6945H28.2549V20.456H40.8682ZM29.4135 0V23.6945H25.3178V0H29.4135ZM39.2201 9.89441V13.0841H28.2549V9.89441H39.2201ZM40.7866 0V3.25474H28.2549V0H40.7866Z" fill="#151515"/>
<path d="M55.136 3.1571L48.038 23.6945H43.7465L52.6884 0H55.4297L55.136 3.1571ZM61.0755 23.6945L53.9611 3.1571L53.6511 0H56.4087L65.3832 23.6945H61.0755ZM60.7328 14.9067V18.1452H47.8095V14.9067H60.7328Z" fill="#151515"/>
<path d="M88.5602 0V23.6945H84.4646L73.8094 6.72104V23.6945H69.7138V0H73.8094L84.4972 17.006V0H88.5602Z" fill="#151515"/>
<path d="M8.86353 64.7433L2.5716 82.0194H0L7.24486 63.0638H8.90269L8.86353 64.7433ZM14.1373 82.0194L7.83228 64.7433L7.79312 63.0638H9.45095L16.7219 82.0194H14.1373ZM13.8109 75.0022V77.0592H3.13291V75.0022H13.8109Z" fill="#7C7C7C"/>
<path d="M28.157 62.0223V82.0194H25.729V62.0223H28.157Z" fill="#7C7C7C"/>
<path d="M40.3623 79.6109V72.3594C40.3623 71.8039 40.2492 71.3222 40.0229 70.9143C39.8054 70.4977 39.4747 70.1765 39.0309 69.9509C38.587 69.7252 38.0388 69.6124 37.3861 69.6124C36.7769 69.6124 36.2417 69.7165 35.7805 69.9248C35.3279 70.1331 34.9711 70.4065 34.71 70.745C34.4577 71.0835 34.3315 71.448 34.3315 71.8386H31.9165C31.9165 71.3352 32.0471 70.8362 32.3081 70.3414C32.5692 69.8467 32.9434 69.3997 33.4308 69.0005C33.9268 68.5926 34.5186 68.2714 35.2061 68.0371C35.9023 67.7941 36.6768 67.6725 37.5297 67.6725C38.5566 67.6725 39.4616 67.8461 40.2449 68.1933C41.0368 68.5405 41.6547 69.0656 42.0985 69.7686C42.551 70.4629 42.7773 71.3352 42.7773 72.3854V78.947C42.7773 79.4156 42.8165 79.9147 42.8948 80.4441C42.9818 80.9736 43.108 81.4292 43.2733 81.8111V82.0194H40.754C40.6321 81.7417 40.5364 81.3728 40.4668 80.9128C40.3971 80.4441 40.3623 80.0102 40.3623 79.6109ZM40.7801 73.479L40.8062 75.1715H38.3651C37.6776 75.1715 37.0641 75.2279 36.5245 75.3407C35.985 75.4449 35.5324 75.6054 35.1669 75.8224C34.8014 76.0394 34.5229 76.3128 34.3315 76.6426C34.14 76.9637 34.0443 77.3413 34.0443 77.7753C34.0443 78.2179 34.1444 78.6215 34.3445 78.986C34.5447 79.3506 34.8449 79.6413 35.2453 79.8583C35.6543 80.0666 36.1547 80.1707 36.7464 80.1707C37.4862 80.1707 38.1388 80.0145 38.7045 79.7021C39.2702 79.3896 39.7184 79.0077 40.049 78.5564C40.3884 78.1051 40.5712 77.6668 40.5973 77.2415L41.6286 78.4002C41.5676 78.7647 41.4023 79.1683 41.1325 79.6109C40.8627 80.0536 40.5016 80.4789 40.049 80.8868C39.6052 81.286 39.0744 81.6202 38.4565 81.8892C37.8473 82.1496 37.1598 82.2798 36.394 82.2798C35.4367 82.2798 34.5969 82.0932 33.8746 81.72C33.161 81.3468 32.604 80.8477 32.2037 80.2228C31.8121 79.5892 31.6163 78.8819 31.6163 78.1007C31.6163 77.3456 31.7642 76.6817 32.0601 76.1088C32.356 75.5273 32.7824 75.0456 33.3394 74.6637C33.8964 74.2732 34.5665 73.9781 35.3497 73.7784C36.1329 73.5788 37.0075 73.479 37.9735 73.479H40.7801Z" fill="#7C7C7C"/>
<path d="M48.9909 70.9403V82.0194H46.5759V67.9329H48.8604L48.9909 70.9403ZM48.4165 74.4424L47.4114 74.4033C47.4201 73.4399 47.5637 72.5503 47.8422 71.7345C48.1206 70.9099 48.5123 70.1939 49.017 69.5863C49.5218 68.9788 50.1222 68.5101 50.8184 68.1803C51.5233 67.8418 52.3022 67.6725 53.1551 67.6725C53.8513 67.6725 54.4778 67.768 55.0348 67.959C55.5918 68.1412 56.0661 68.4363 56.4577 68.8443C56.858 69.2522 57.1626 69.7816 57.3714 70.4326C57.5803 71.0748 57.6847 71.8603 57.6847 72.789V82.0194H55.2567V72.763C55.2567 72.0252 55.1479 71.435 54.9304 70.9924C54.7128 70.5411 54.3952 70.2156 53.9775 70.016C53.5597 69.8077 53.0463 69.7035 52.4371 69.7035C51.8366 69.7035 51.2884 69.8294 50.7923 70.0811C50.305 70.3328 49.8829 70.6799 49.5261 71.1226C49.178 71.5652 48.9039 72.073 48.7037 72.6458C48.5123 73.2099 48.4165 73.8088 48.4165 74.4424Z" fill="#7C7C7C"/>
<path d="M70.5036 67.9329H72.6966V81.72C72.6966 82.9611 72.4442 84.02 71.9395 84.8966C71.4347 85.7732 70.7298 86.4372 69.8248 86.8885C68.9284 87.3485 67.8928 87.5785 66.718 87.5785C66.2306 87.5785 65.6563 87.5004 64.9949 87.3442C64.3422 87.1966 63.6982 86.9406 63.0629 86.5761C62.4363 86.2202 61.9098 85.7385 61.4834 85.131L62.7496 83.6989C63.3414 84.4106 63.9593 84.9053 64.6032 85.183C65.2559 85.4608 65.8999 85.5996 66.5352 85.5996C67.301 85.5996 67.9624 85.4564 68.5194 85.17C69.0763 84.8836 69.5071 84.4583 69.8117 83.8942C70.125 83.3387 70.2816 82.653 70.2816 81.8372V71.0314L70.5036 67.9329ZM60.7785 75.1324V74.859C60.7785 73.7828 60.9047 72.8064 61.157 71.9297C61.4181 71.0445 61.788 70.285 62.2666 69.6514C62.754 69.0178 63.3414 68.5318 64.0289 68.1933C64.7164 67.8461 65.4909 67.6725 66.3524 67.6725C67.2401 67.6725 68.0146 67.8288 68.676 68.1412C69.3461 68.445 69.9118 68.892 70.373 69.4822C70.843 70.0637 71.2128 70.7667 71.4826 71.5913C71.7524 72.4158 71.9395 73.3488 72.0439 74.3903V75.5881C71.9482 76.6209 71.7611 77.5496 71.4826 78.3741C71.2128 79.1987 70.843 79.9017 70.373 80.4832C69.9118 81.0647 69.3461 81.5117 68.676 81.8242C68.0059 82.1279 67.2227 82.2798 66.3263 82.2798C65.4822 82.2798 64.7164 82.1019 64.0289 81.746C63.3501 81.3902 62.767 80.8911 62.2797 80.2489C61.7923 79.6066 61.4181 78.8515 61.157 77.9836C60.9047 77.1069 60.7785 76.1566 60.7785 75.1324ZM63.1934 74.859V75.1324C63.1934 75.8354 63.2631 76.4951 63.4023 77.1113C63.5502 77.7275 63.7722 78.27 64.068 78.7387C64.3726 79.2073 64.7599 79.5762 65.2298 79.8453C65.6998 80.1056 66.2611 80.2358 66.9138 80.2358C67.7144 80.2358 68.3758 80.0666 68.8979 79.7281C69.4201 79.3896 69.8335 78.9426 70.1381 78.3871C70.4513 77.8317 70.695 77.2285 70.8691 76.5775V73.4399C70.7733 72.9626 70.6254 72.5026 70.4252 72.0599C70.2338 71.6086 69.9814 71.2094 69.6681 70.8622C69.3635 70.5063 68.985 70.2243 68.5324 70.016C68.0799 69.8077 67.549 69.7035 66.9399 69.7035C66.2785 69.7035 65.7085 69.8424 65.2298 70.1201C64.7599 70.3892 64.3726 70.7624 64.068 71.2397C63.7722 71.7084 63.5502 72.2552 63.4023 72.8801C63.2631 73.4964 63.1934 74.156 63.1934 74.859Z" fill="#7C7C7C"/>
<path d="M85.0063 78.7647V67.9329H87.4343V82.0194H85.1238L85.0063 78.7647ZM85.4632 75.7964L86.4684 75.7703C86.4684 76.7077 86.3683 77.5756 86.1681 78.3741C85.9767 79.1639 85.6634 79.8496 85.2282 80.4311C84.7931 81.0126 84.2231 81.4683 83.5182 81.7981C82.8133 82.1193 81.9561 82.2798 80.9466 82.2798C80.2591 82.2798 79.6282 82.18 79.0538 81.9804C78.4881 81.7808 78.0008 81.4726 77.5918 81.056C77.1828 80.6394 76.8651 80.097 76.6388 79.4287C76.4213 78.7604 76.3125 77.9575 76.3125 77.0202V67.9329H78.7274V77.0462C78.7274 77.6798 78.7971 78.2049 78.9363 78.6215C79.0843 79.0294 79.2801 79.3549 79.5237 79.5979C79.7761 79.8322 80.0546 79.9972 80.3592 80.0926C80.6725 80.1881 80.9945 80.2358 81.3252 80.2358C82.3521 80.2358 83.1657 80.0406 83.7662 79.65C84.3667 79.2507 84.7975 78.717 85.0585 78.0487C85.3283 77.3717 85.4632 76.6209 85.4632 75.7964Z" fill="#7C7C7C"/>
<path d="M99.4438 79.6109V72.3594C99.4438 71.8039 99.3307 71.3222 99.1044 70.9143C98.8869 70.4977 98.5562 70.1765 98.1123 69.9509C97.6685 69.7252 97.1202 69.6124 96.4676 69.6124C95.8584 69.6124 95.3232 69.7165 94.8619 69.9248C94.4094 70.1331 94.0526 70.4065 93.7915 70.745C93.5392 71.0835 93.413 71.448 93.413 71.8386H90.998C90.998 71.3352 91.1286 70.8362 91.3896 70.3414C91.6507 69.8467 92.0249 69.3997 92.5123 69.0005C93.0083 68.5926 93.6001 68.2714 94.2876 68.0371C94.9838 67.7941 95.7583 67.6725 96.6112 67.6725C97.6381 67.6725 98.5431 67.8461 99.3263 68.1933C100.118 68.5405 100.736 69.0656 101.18 69.7686C101.633 70.4629 101.859 71.3352 101.859 72.3854V78.947C101.859 79.4156 101.898 79.9147 101.976 80.4441C102.063 80.9736 102.189 81.4292 102.355 81.8111V82.0194H99.8354C99.7136 81.7417 99.6179 81.3728 99.5483 80.9128C99.4786 80.4441 99.4438 80.0102 99.4438 79.6109ZM99.8615 73.479L99.8877 75.1715H97.4466C96.7591 75.1715 96.1456 75.2279 95.606 75.3407C95.0665 75.4449 94.6139 75.6054 94.2484 75.8224C93.8829 76.0394 93.6044 76.3128 93.413 76.6426C93.2215 76.9637 93.1258 77.3413 93.1258 77.7753C93.1258 78.2179 93.2259 78.6215 93.426 78.986C93.6262 79.3506 93.9264 79.6413 94.3267 79.8583C94.7358 80.0666 95.2362 80.1707 95.8279 80.1707C96.5676 80.1707 97.2203 80.0145 97.786 79.7021C98.3517 79.3896 98.7998 79.0077 99.1305 78.5564C99.4699 78.1051 99.6527 77.6668 99.6788 77.2415L100.71 78.4002C100.649 78.7647 100.484 79.1683 100.214 79.6109C99.9442 80.0536 99.5831 80.4789 99.1305 80.8868C98.6867 81.286 98.1559 81.6202 97.538 81.8892C96.9288 82.1496 96.2413 82.2798 95.4755 82.2798C94.5182 82.2798 93.6784 82.0932 92.9561 81.72C92.2425 81.3468 91.6855 80.8477 91.2852 80.2228C90.8936 79.5892 90.6978 78.8819 90.6978 78.1007C90.6978 77.3456 90.8457 76.6817 91.1416 76.1088C91.4375 75.5273 91.8639 75.0456 92.4209 74.6637C92.9778 74.2732 93.6479 73.9781 94.4312 73.7784C95.2144 73.5788 96.089 73.479 97.055 73.479H99.8615Z" fill="#7C7C7C"/>
<path d="M114.808 67.9329H117.001V81.72C117.001 82.9611 116.749 84.02 116.244 84.8966C115.739 85.7732 115.034 86.4372 114.129 86.8885C113.233 87.3485 112.197 87.5785 111.023 87.5785C110.535 87.5785 109.961 87.5004 109.299 87.3442C108.647 87.1966 108.003 86.9406 107.367 86.5761C106.741 86.2202 106.214 85.7385 105.788 85.131L107.054 83.6989C107.646 84.4106 108.264 84.9053 108.908 85.183C109.561 85.4608 110.205 85.5996 110.84 85.5996C111.606 85.5996 112.267 85.4564 112.824 85.17C113.381 84.8836 113.812 84.4583 114.116 83.8942C114.43 83.3387 114.586 82.653 114.586 81.8372V71.0314L114.808 67.9329ZM105.083 75.1324V74.859C105.083 73.7828 105.209 72.8064 105.462 71.9297C105.723 71.0445 106.093 70.285 106.571 69.6514C107.059 69.0178 107.646 68.5318 108.333 68.1933C109.021 67.8461 109.795 67.6725 110.657 67.6725C111.545 67.6725 112.319 67.8288 112.981 68.1412C113.651 68.445 114.216 68.892 114.678 69.4822C115.148 70.0637 115.517 70.7667 115.787 71.5913C116.057 72.4158 116.244 73.3488 116.348 74.3903V75.5881C116.253 76.6209 116.066 77.5496 115.787 78.3741C115.517 79.1987 115.148 79.9017 114.678 80.4832C114.216 81.0647 113.651 81.5117 112.981 81.8242C112.311 82.1279 111.527 82.2798 110.631 82.2798C109.787 82.2798 109.021 82.1019 108.333 81.746C107.655 81.3902 107.072 80.8911 106.584 80.2489C106.097 79.6066 105.723 78.8515 105.462 77.9836C105.209 77.1069 105.083 76.1566 105.083 75.1324ZM107.498 74.859V75.1324C107.498 75.8354 107.568 76.4951 107.707 77.1113C107.855 77.7275 108.077 78.27 108.373 78.7387C108.677 79.2073 109.064 79.5762 109.534 79.8453C110.004 80.1056 110.566 80.2358 111.218 80.2358C112.019 80.2358 112.68 80.0666 113.203 79.7281C113.725 79.3896 114.138 78.9426 114.443 78.3871C114.756 77.8317 115 77.2285 115.174 76.5775V73.4399C115.078 72.9626 114.93 72.5026 114.73 72.0599C114.538 71.6086 114.286 71.2094 113.973 70.8622C113.668 70.5063 113.29 70.2243 112.837 70.016C112.384 69.8077 111.854 69.7035 111.244 69.7035C110.583 69.7035 110.013 69.8424 109.534 70.1201C109.064 70.3892 108.677 70.7624 108.373 71.2397C108.077 71.7084 107.855 72.2552 107.707 72.8801C107.568 73.4964 107.498 74.156 107.498 74.859Z" fill="#7C7C7C"/>
<path d="M126.53 82.2798C125.547 82.2798 124.655 82.1149 123.854 81.7851C123.063 81.4466 122.379 80.9736 121.805 80.366C121.239 79.7585 120.804 79.0381 120.5 78.2049C120.195 77.3717 120.043 76.4603 120.043 75.4709V74.9241C120.043 73.7784 120.212 72.7586 120.552 71.8646C120.891 70.962 121.352 70.1982 121.936 69.5733C122.519 68.9484 123.18 68.4754 123.92 68.1542C124.659 67.8331 125.425 67.6725 126.217 67.6725C127.227 67.6725 128.097 67.8461 128.828 68.1933C129.568 68.5405 130.172 69.0265 130.642 69.6514C131.112 70.2677 131.46 70.9967 131.687 71.8386C131.913 72.6718 132.026 73.5832 132.026 74.5726V75.6532H121.479V73.6873H129.611V73.505C129.576 72.8801 129.446 72.2726 129.22 71.6824C129.002 71.0922 128.654 70.6061 128.175 70.2243C127.697 69.8424 127.044 69.6514 126.217 69.6514C125.669 69.6514 125.164 69.7686 124.703 70.0029C124.242 70.2286 123.846 70.5671 123.515 71.0184C123.184 71.4697 122.928 72.0209 122.745 72.6718C122.562 73.3228 122.471 74.0735 122.471 74.9241V75.4709C122.471 76.1392 122.562 76.7685 122.745 77.3587C122.936 77.9402 123.21 78.4522 123.567 78.8949C123.933 79.3375 124.372 79.6847 124.886 79.9364C125.408 80.1881 126 80.314 126.661 80.314C127.514 80.314 128.236 80.1404 128.828 79.7932C129.42 79.446 129.938 78.9817 130.381 78.4002L131.843 79.5589C131.539 80.0189 131.152 80.4572 130.682 80.8738C130.212 81.2904 129.633 81.6289 128.945 81.8892C128.267 82.1496 127.462 82.2798 126.53 82.2798Z" fill="#7C7C7C"/>
<path d="M144.101 62.0223V82.0194H141.673V62.0223H144.101Z" fill="#7C7C7C"/>
<path d="M153.839 82.2798C152.856 82.2798 151.964 82.1149 151.163 81.7851C150.371 81.4466 149.688 80.9736 149.114 80.366C148.548 79.7585 148.113 79.0381 147.808 78.2049C147.504 77.3717 147.351 76.4603 147.351 75.4709V74.9241C147.351 73.7784 147.521 72.7586 147.86 71.8646C148.2 70.962 148.661 70.1982 149.244 69.5733C149.827 68.9484 150.489 68.4754 151.228 68.1542C151.968 67.8331 152.734 67.6725 153.526 67.6725C154.535 67.6725 155.405 67.8461 156.136 68.1933C156.876 68.5405 157.481 69.0265 157.951 69.6514C158.421 70.2677 158.769 70.9967 158.995 71.8386C159.222 72.6718 159.335 73.5832 159.335 74.5726V75.6532H148.787V73.6873H156.92V73.505C156.885 72.8801 156.754 72.2726 156.528 71.6824C156.311 71.0922 155.962 70.6061 155.484 70.2243C155.005 69.8424 154.352 69.6514 153.526 69.6514C152.977 69.6514 152.473 69.7686 152.011 70.0029C151.55 70.2286 151.154 70.5671 150.824 71.0184C150.493 71.4697 150.236 72.0209 150.053 72.6718C149.871 73.3228 149.779 74.0735 149.779 74.9241V75.4709C149.779 76.1392 149.871 76.7685 150.053 77.3587C150.245 77.9402 150.519 78.4522 150.876 78.8949C151.241 79.3375 151.681 79.6847 152.194 79.9364C152.716 80.1881 153.308 80.314 153.97 80.314C154.822 80.314 155.545 80.1404 156.136 79.7932C156.728 79.446 157.246 78.9817 157.69 78.4002L159.152 79.5589C158.847 80.0189 158.46 80.4572 157.99 80.8738C157.52 81.2904 156.941 81.6289 156.254 81.8892C155.575 82.1496 154.77 82.2798 153.839 82.2798Z" fill="#7C7C7C"/>
<path d="M170.483 79.6109V72.3594C170.483 71.8039 170.369 71.3222 170.143 70.9143C169.926 70.4977 169.595 70.1765 169.151 69.9509C168.707 69.7252 168.159 69.6124 167.506 69.6124C166.897 69.6124 166.362 69.7165 165.901 69.9248C165.448 70.1331 165.091 70.4065 164.83 70.745C164.578 71.0835 164.452 71.448 164.452 71.8386H162.037C162.037 71.3352 162.167 70.8362 162.428 70.3414C162.689 69.8467 163.064 69.3997 163.551 69.0005C164.047 68.5926 164.639 68.2714 165.326 68.0371C166.023 67.7941 166.797 67.6725 167.65 67.6725C168.677 67.6725 169.582 67.8461 170.365 68.1933C171.157 68.5405 171.775 69.0656 172.219 69.7686C172.671 70.4629 172.898 71.3352 172.898 72.3854V78.947C172.898 79.4156 172.937 79.9147 173.015 80.4441C173.102 80.9736 173.228 81.4292 173.394 81.8111V82.0194H170.874C170.752 81.7417 170.657 81.3728 170.587 80.9128C170.517 80.4441 170.483 80.0102 170.483 79.6109ZM170.9 73.479L170.926 75.1715H168.485C167.798 75.1715 167.184 75.2279 166.645 75.3407C166.105 75.4449 165.653 75.6054 165.287 75.8224C164.922 76.0394 164.643 76.3128 164.452 76.6426C164.26 76.9637 164.165 77.3413 164.165 77.7753C164.165 78.2179 164.265 78.6215 164.465 78.986C164.665 79.3506 164.965 79.6413 165.366 79.8583C165.775 80.0666 166.275 80.1707 166.867 80.1707C167.606 80.1707 168.259 80.0145 168.825 79.7021C169.39 79.3896 169.839 79.0077 170.169 78.5564C170.509 78.1051 170.691 77.6668 170.718 77.2415L171.749 78.4002C171.688 78.7647 171.523 79.1683 171.253 79.6109C170.983 80.0536 170.622 80.4789 170.169 80.8868C169.725 81.286 169.195 81.6202 168.577 81.8892C167.968 82.1496 167.28 82.2798 166.514 82.2798C165.557 82.2798 164.717 82.0932 163.995 81.72C163.281 81.3468 162.724 80.8477 162.324 80.2228C161.932 79.5892 161.737 78.8819 161.737 78.1007C161.737 77.3456 161.884 76.6817 162.18 76.1088C162.476 75.5273 162.903 75.0456 163.46 74.6637C164.017 74.2732 164.687 73.9781 165.47 73.7784C166.253 73.5788 167.128 73.479 168.094 73.479H170.9Z" fill="#7C7C7C"/>
<path d="M179.111 70.1461V82.0194H176.696V67.9329H179.046L179.111 70.1461ZM183.523 67.8548L183.51 70.0941C183.31 70.0507 183.119 70.0246 182.936 70.016C182.762 69.9986 182.562 69.9899 182.335 69.9899C181.778 69.9899 181.287 70.0767 180.86 70.2503C180.434 70.4239 180.073 70.6669 179.777 70.9794C179.481 71.2918 179.246 71.665 179.072 72.099C178.907 72.5243 178.798 72.993 178.746 73.505L178.067 73.8956C178.067 73.045 178.15 72.2465 178.315 71.5001C178.489 70.7537 178.754 70.0941 179.111 69.5212C179.468 68.9397 179.92 68.4884 180.469 68.1673C181.026 67.8375 181.687 67.6725 182.453 67.6725C182.627 67.6725 182.827 67.6942 183.053 67.7376C183.28 67.7724 183.436 67.8114 183.523 67.8548Z" fill="#7C7C7C"/>
<path d="M188.17 70.9403V82.0194H185.756V67.9329H188.04L188.17 70.9403ZM187.596 74.4424L186.591 74.4033C186.6 73.4399 186.743 72.5503 187.022 71.7345C187.3 70.9099 187.692 70.1939 188.197 69.5863C188.701 68.9788 189.302 68.5101 189.998 68.1803C190.703 67.8418 191.482 67.6725 192.335 67.6725C193.031 67.6725 193.657 67.768 194.214 67.959C194.771 68.1412 195.246 68.4363 195.637 68.8443C196.038 69.2522 196.342 69.7816 196.551 70.4326C196.76 71.0748 196.864 71.8603 196.864 72.789V82.0194H194.436V72.763C194.436 72.0252 194.328 71.435 194.11 70.9924C193.892 70.5411 193.575 70.2156 193.157 70.016C192.739 69.8077 192.226 69.7035 191.617 69.7035C191.016 69.7035 190.468 69.8294 189.972 70.0811C189.485 70.3328 189.062 70.6799 188.706 71.1226C188.358 71.5652 188.083 72.073 187.883 72.6458C187.692 73.2099 187.596 73.8088 187.596 74.4424Z" fill="#7C7C7C"/>
<path d="M203.156 67.9329V82.0194H200.728V67.9329H203.156ZM200.545 64.1965C200.545 63.8059 200.663 63.4761 200.898 63.207C201.142 62.938 201.498 62.8035 201.968 62.8035C202.43 62.8035 202.782 62.938 203.026 63.207C203.278 63.4761 203.404 63.8059 203.404 64.1965C203.404 64.5697 203.278 64.8908 203.026 65.1599C202.782 65.4203 202.43 65.5505 201.968 65.5505C201.498 65.5505 201.142 65.4203 200.898 65.1599C200.663 64.8908 200.545 64.5697 200.545 64.1965Z" fill="#7C7C7C"/>
<path d="M209.448 70.9403V82.0194H207.033V67.9329H209.318L209.448 70.9403ZM208.874 74.4424L207.869 74.4033C207.877 73.4399 208.021 72.5503 208.299 71.7345C208.578 70.9099 208.97 70.1939 209.474 69.5863C209.979 68.9788 210.58 68.5101 211.276 68.1803C211.981 67.8418 212.759 67.6725 213.612 67.6725C214.309 67.6725 214.935 67.768 215.492 67.959C216.049 68.1412 216.523 68.4363 216.915 68.8443C217.315 69.2522 217.62 69.7816 217.829 70.4326C218.038 71.0748 218.142 71.8603 218.142 72.789V82.0194H215.714V72.763C215.714 72.0252 215.605 71.435 215.388 70.9924C215.17 70.5411 214.852 70.2156 214.435 70.016C214.017 69.8077 213.504 69.7035 212.894 69.7035C212.294 69.7035 211.746 69.8294 211.25 70.0811C210.762 70.3328 210.34 70.6799 209.983 71.1226C209.635 71.5652 209.361 72.073 209.161 72.6458C208.97 73.2099 208.874 73.8088 208.874 74.4424Z" fill="#7C7C7C"/>
<path d="M230.961 67.9329H233.154V81.72C233.154 82.9611 232.901 84.02 232.397 84.8966C231.892 85.7732 231.187 86.4372 230.282 86.8885C229.386 87.3485 228.35 87.5785 227.175 87.5785C226.688 87.5785 226.114 87.5004 225.452 87.3442C224.799 87.1966 224.155 86.9406 223.52 86.5761C222.894 86.2202 222.367 85.7385 221.941 85.131L223.207 83.6989C223.799 84.4106 224.417 84.9053 225.061 85.183C225.713 85.4608 226.357 85.5996 226.992 85.5996C227.758 85.5996 228.42 85.4564 228.977 85.17C229.534 84.8836 229.964 84.4583 230.269 83.8942C230.582 83.3387 230.739 82.653 230.739 81.8372V71.0314L230.961 67.9329ZM221.236 75.1324V74.859C221.236 73.7828 221.362 72.8064 221.614 71.9297C221.875 71.0445 222.245 70.285 222.724 69.6514C223.211 69.0178 223.799 68.5318 224.486 68.1933C225.174 67.8461 225.948 67.6725 226.81 67.6725C227.697 67.6725 228.472 67.8288 229.133 68.1412C229.803 68.445 230.369 68.892 230.83 69.4822C231.3 70.0637 231.67 70.7667 231.94 71.5913C232.21 72.4158 232.397 73.3488 232.501 74.3903V75.5881C232.405 76.6209 232.218 77.5496 231.94 78.3741C231.67 79.1987 231.3 79.9017 230.83 80.4832C230.369 81.0647 229.803 81.5117 229.133 81.8242C228.463 82.1279 227.68 82.2798 226.784 82.2798C225.939 82.2798 225.174 82.1019 224.486 81.746C223.807 81.3902 223.224 80.8911 222.737 80.2489C222.25 79.6066 221.875 78.8515 221.614 77.9836C221.362 77.1069 221.236 76.1566 221.236 75.1324ZM223.651 74.859V75.1324C223.651 75.8354 223.72 76.4951 223.86 77.1113C224.008 77.7275 224.229 78.27 224.525 78.7387C224.83 79.2073 225.217 79.5762 225.687 79.8453C226.157 80.1056 226.718 80.2358 227.371 80.2358C228.172 80.2358 228.833 80.0666 229.355 79.7281C229.877 79.3896 230.291 78.9426 230.595 78.3871C230.909 77.8317 231.152 77.2285 231.326 76.5775V73.4399C231.231 72.9626 231.083 72.5026 230.883 72.0599C230.691 71.6086 230.439 71.2094 230.125 70.8622C229.821 70.5063 229.442 70.2243 228.99 70.016C228.537 69.8077 228.006 69.7035 227.397 69.7035C226.736 69.7035 226.166 69.8424 225.687 70.1201C225.217 70.3892 224.83 70.7624 224.525 71.2397C224.229 71.7084 224.008 72.2552 223.86 72.8801C223.72 73.4964 223.651 74.156 223.651 74.859Z" fill="#7C7C7C"/>
<path d="M247.056 82.0194H244.641V66.4488C244.641 65.4333 244.824 64.5784 245.189 63.884C245.564 63.181 246.099 62.6516 246.795 62.2957C247.491 61.9312 248.318 61.7489 249.275 61.7489C249.554 61.7489 249.832 61.7663 250.111 61.801C250.398 61.8357 250.676 61.8878 250.946 61.9572L250.816 63.9231C250.633 63.8797 250.424 63.8493 250.189 63.832C249.963 63.8146 249.737 63.8059 249.51 63.8059C248.997 63.8059 248.553 63.9101 248.179 64.1184C247.813 64.318 247.535 64.6131 247.343 65.0037C247.152 65.3942 247.056 65.8759 247.056 66.4488V82.0194ZM250.059 67.9329V69.7816H242.409V67.9329H250.059Z" fill="#7C7C7C"/>
<path d="M252.108 75.1324V74.833C252.108 73.8175 252.256 72.8758 252.552 72.0079C252.848 71.1312 253.274 70.3718 253.831 69.7295C254.388 69.0786 255.063 68.5752 255.854 68.2193C256.646 67.8548 257.534 67.6725 258.517 67.6725C259.509 67.6725 260.401 67.8548 261.193 68.2193C261.994 68.5752 262.673 69.0786 263.23 69.7295C263.795 70.3718 264.226 71.1312 264.522 72.0079C264.818 72.8758 264.966 73.8175 264.966 74.833V75.1324C264.966 76.1479 264.818 77.0896 264.522 77.9575C264.226 78.8255 263.795 79.5849 263.23 80.2358C262.673 80.8781 261.998 81.3815 261.206 81.746C260.423 82.1019 259.536 82.2798 258.544 82.2798C257.551 82.2798 256.659 82.1019 255.867 81.746C255.076 81.3815 254.397 80.8781 253.831 80.2358C253.274 79.5849 252.848 78.8255 252.552 77.9575C252.256 77.0896 252.108 76.1479 252.108 75.1324ZM254.523 74.833V75.1324C254.523 75.8354 254.606 76.4994 254.771 77.1243C254.936 77.7405 255.184 78.2873 255.515 78.7647C255.854 79.2421 256.277 79.6196 256.781 79.8973C257.286 80.1664 257.873 80.3009 258.544 80.3009C259.205 80.3009 259.784 80.1664 260.28 79.8973C260.784 79.6196 261.202 79.2421 261.533 78.7647C261.864 78.2873 262.112 77.7405 262.277 77.1243C262.451 76.4994 262.538 75.8354 262.538 75.1324V74.833C262.538 74.1386 262.451 73.4833 262.277 72.8671C262.112 72.2422 261.859 71.6911 261.52 71.2137C261.189 70.7277 260.771 70.3458 260.267 70.068C259.771 69.7903 259.187 69.6514 258.517 69.6514C257.856 69.6514 257.273 69.7903 256.768 70.068C256.272 70.3458 255.854 70.7277 255.515 71.2137C255.184 71.6911 254.936 72.2422 254.771 72.8671C254.606 73.4833 254.523 74.1386 254.523 74.833Z" fill="#7C7C7C"/>
<path d="M270.409 70.1461V82.0194H267.994V67.9329H270.344L270.409 70.1461ZM274.822 67.8548L274.809 70.0941C274.608 70.0507 274.417 70.0246 274.234 70.016C274.06 69.9986 273.86 69.9899 273.634 69.9899C273.077 69.9899 272.585 70.0767 272.159 70.2503C271.732 70.4239 271.371 70.6669 271.075 70.9794C270.779 71.2918 270.544 71.665 270.37 72.099C270.205 72.5243 270.096 72.993 270.044 73.505L269.365 73.8956C269.365 73.045 269.448 72.2465 269.613 71.5001C269.787 70.7537 270.053 70.0941 270.409 69.5212C270.766 68.9397 271.219 68.4884 271.767 68.1673C272.324 67.8375 272.985 67.6725 273.751 67.6725C273.925 67.6725 274.125 67.6942 274.352 67.7376C274.578 67.7724 274.735 67.8114 274.822 67.8548Z" fill="#7C7C7C"/>
<path d="M291.909 78.283C291.909 77.9358 291.831 77.6147 291.674 77.3196C291.526 77.0158 291.217 76.7424 290.747 76.4994C290.286 76.2477 289.59 76.0307 288.659 75.8484C287.875 75.6835 287.166 75.4883 286.531 75.2626C285.904 75.0369 285.369 74.7635 284.925 74.4424C284.49 74.1213 284.155 73.7437 283.92 73.3098C283.685 72.8758 283.568 72.3681 283.568 71.7865C283.568 71.2311 283.689 70.706 283.933 70.2112C284.186 69.7165 284.538 69.2782 284.991 68.8963C285.452 68.5144 286.004 68.215 286.648 67.998C287.292 67.781 288.01 67.6725 288.802 67.6725C289.934 67.6725 290.9 67.8722 291.7 68.2714C292.501 68.6707 293.114 69.2044 293.541 69.8727C293.967 70.5324 294.18 71.2658 294.18 72.073H291.765C291.765 71.6824 291.648 71.3048 291.413 70.9403C291.187 70.5671 290.852 70.259 290.408 70.016C289.973 69.7729 289.438 69.6514 288.802 69.6514C288.132 69.6514 287.588 69.7556 287.17 69.9639C286.761 70.1635 286.461 70.4195 286.27 70.732C286.087 71.0445 285.996 71.3743 285.996 71.7214C285.996 71.9818 286.039 72.2162 286.126 72.4245C286.222 72.6241 286.387 72.8107 286.622 72.9843C286.857 73.1492 287.188 73.3054 287.614 73.453C288.041 73.6005 288.585 73.7481 289.246 73.8956C290.403 74.156 291.356 74.4684 292.105 74.833C292.853 75.1975 293.41 75.6445 293.776 76.1739C294.141 76.7034 294.324 77.3456 294.324 78.1007C294.324 78.717 294.193 79.2811 293.932 79.7932C293.68 80.3053 293.31 80.7479 292.823 81.1211C292.344 81.4857 291.77 81.7721 291.1 81.9804C290.438 82.18 289.694 82.2798 288.867 82.2798C287.623 82.2798 286.57 82.0585 285.708 81.6159C284.847 81.1732 284.194 80.6004 283.75 79.8973C283.307 79.1943 283.085 78.4522 283.085 77.6711H285.513C285.547 78.3307 285.739 78.8558 286.087 79.2464C286.435 79.6283 286.862 79.9017 287.366 80.0666C287.871 80.2228 288.371 80.3009 288.867 80.3009C289.529 80.3009 290.081 80.2141 290.525 80.0406C290.978 79.867 291.322 79.6283 291.557 79.3245C291.792 79.0207 291.909 78.6736 291.909 78.283Z" fill="#7C7C7C"/>
<path d="M303.409 67.9329V69.7816H295.773V67.9329H303.409ZM298.358 64.5089H300.773V78.5304C300.773 79.0077 300.847 79.3679 300.994 79.6109C301.142 79.854 301.334 80.0145 301.569 80.0926C301.804 80.1707 302.056 80.2098 302.326 80.2098C302.526 80.2098 302.735 80.1924 302.953 80.1577C303.179 80.1143 303.348 80.0796 303.462 80.0536L303.475 82.0194C303.283 82.0802 303.031 82.1366 302.718 82.1887C302.413 82.2494 302.043 82.2798 301.608 82.2798C301.016 82.2798 300.472 82.1626 299.976 81.9283C299.48 81.694 299.084 81.3034 298.788 80.7566C298.501 80.2011 298.358 79.4547 298.358 78.5173V64.5089Z" fill="#7C7C7C"/>
<path d="M314.884 78.7647V67.9329H317.312V82.0194H315.001L314.884 78.7647ZM315.341 75.7964L316.346 75.7703C316.346 76.7077 316.246 77.5756 316.045 78.3741C315.854 79.1639 315.541 79.8496 315.106 80.4311C314.67 81.0126 314.1 81.4683 313.396 81.7981C312.691 82.1193 311.833 82.2798 310.824 82.2798C310.136 82.2798 309.506 82.18 308.931 81.9804C308.365 81.7808 307.878 81.4726 307.469 81.056C307.06 80.6394 306.742 80.097 306.516 79.4287C306.299 78.7604 306.19 77.9575 306.19 77.0202V67.9329H308.605V77.0462C308.605 77.6798 308.674 78.2049 308.814 78.6215C308.962 79.0294 309.157 79.3549 309.401 79.5979C309.653 79.8322 309.932 79.9972 310.237 80.0926C310.55 80.1881 310.872 80.2358 311.203 80.2358C312.229 80.2358 313.043 80.0406 313.644 79.65C314.244 79.2507 314.675 78.717 314.936 78.0487C315.206 77.3717 315.341 76.6209 315.341 75.7964Z" fill="#7C7C7C"/>
<path d="M329.896 79.2855V62.0223H332.324V82.0194H330.104L329.896 79.2855ZM320.392 75.1324V74.859C320.392 73.7828 320.523 72.8064 320.784 71.9297C321.054 71.0445 321.432 70.285 321.92 69.6514C322.416 69.0178 323.003 68.5318 323.682 68.1933C324.369 67.8461 325.135 67.6725 325.979 67.6725C326.867 67.6725 327.642 67.8288 328.303 68.1412C328.973 68.445 329.539 68.892 330 69.4822C330.47 70.0637 330.84 70.7667 331.11 71.5913C331.379 72.4158 331.566 73.3488 331.671 74.3903V75.5881C331.575 76.6209 331.388 77.5496 331.11 78.3741C330.84 79.1987 330.47 79.9017 330 80.4832C329.539 81.0647 328.973 81.5117 328.303 81.8242C327.633 82.1279 326.85 82.2798 325.953 82.2798C325.127 82.2798 324.369 82.1019 323.682 81.746C323.003 81.3902 322.416 80.8911 321.92 80.2489C321.432 79.6066 321.054 78.8515 320.784 77.9836C320.523 77.1069 320.392 76.1566 320.392 75.1324ZM322.82 74.859V75.1324C322.82 75.8354 322.89 76.4951 323.029 77.1113C323.177 77.7275 323.403 78.27 323.708 78.7387C324.013 79.2073 324.4 79.5762 324.87 79.8453C325.34 80.1056 325.901 80.2358 326.554 80.2358C327.354 80.2358 328.011 80.0666 328.525 79.7281C329.047 79.3896 329.465 78.9426 329.778 78.3871C330.091 77.8317 330.335 77.2285 330.509 76.5775V73.4399C330.405 72.9626 330.252 72.5026 330.052 72.0599C329.861 71.6086 329.608 71.2094 329.295 70.8622C328.99 70.5063 328.612 70.2243 328.159 70.016C327.716 69.8077 327.189 69.7035 326.58 69.7035C325.919 69.7035 325.348 69.8424 324.87 70.1201C324.4 70.3892 324.013 70.7624 323.708 71.2397C323.403 71.7084 323.177 72.2552 323.029 72.8801C322.89 73.4964 322.82 74.156 322.82 74.859Z" fill="#7C7C7C"/>
<path d="M341.944 82.2798C340.961 82.2798 340.069 82.1149 339.268 81.7851C338.476 81.4466 337.793 80.9736 337.219 80.366C336.653 79.7585 336.218 79.0381 335.913 78.2049C335.609 77.3717 335.456 76.4603 335.456 75.4709V74.9241C335.456 73.7784 335.626 72.7586 335.966 71.8646C336.305 70.962 336.766 70.1982 337.349 69.5733C337.932 68.9484 338.594 68.4754 339.333 68.1542C340.073 67.8331 340.839 67.6725 341.631 67.6725C342.64 67.6725 343.511 67.8461 344.242 68.1933C344.981 68.5405 345.586 69.0265 346.056 69.6514C346.526 70.2677 346.874 70.9967 347.1 71.8386C347.327 72.6718 347.44 73.5832 347.44 74.5726V75.6532H336.892V73.6873H345.025V73.505C344.99 72.8801 344.86 72.2726 344.633 71.6824C344.416 71.0922 344.068 70.6061 343.589 70.2243C343.11 69.8424 342.458 69.6514 341.631 69.6514C341.083 69.6514 340.578 69.7686 340.117 70.0029C339.655 70.2286 339.259 70.5671 338.929 71.0184C338.598 71.4697 338.341 72.0209 338.159 72.6718C337.976 73.3228 337.884 74.0735 337.884 74.9241V75.4709C337.884 76.1392 337.976 76.7685 338.159 77.3587C338.35 77.9402 338.624 78.4522 338.981 78.8949C339.347 79.3375 339.786 79.6847 340.299 79.9364C340.822 80.1881 341.413 80.314 342.075 80.314C342.928 80.314 343.65 80.1404 344.242 79.7932C344.833 79.446 345.351 78.9817 345.795 78.4002L347.257 79.5589C346.953 80.0189 346.565 80.4572 346.095 80.8738C345.625 81.2904 345.047 81.6289 344.359 81.8892C343.68 82.1496 342.875 82.2798 341.944 82.2798Z" fill="#7C7C7C"/>
<path d="M352.674 70.9403V82.0194H350.259V67.9329H352.544L352.674 70.9403ZM352.1 74.4424L351.095 74.4033C351.104 73.4399 351.247 72.5503 351.526 71.7345C351.804 70.9099 352.196 70.1939 352.701 69.5863C353.205 68.9788 353.806 68.5101 354.502 68.1803C355.207 67.8418 355.986 67.6725 356.839 67.6725C357.535 67.6725 358.161 67.768 358.718 67.959C359.275 68.1412 359.75 68.4363 360.141 68.8443C360.542 69.2522 360.846 69.7816 361.055 70.4326C361.264 71.0748 361.368 71.8603 361.368 72.789V82.0194H358.94V72.763C358.94 72.0252 358.831 71.435 358.614 70.9924C358.396 70.5411 358.079 70.2156 357.661 70.016C357.243 69.8077 356.73 69.7035 356.121 69.7035C355.52 69.7035 354.972 69.8294 354.476 70.0811C353.989 70.3328 353.566 70.6799 353.21 71.1226C352.862 71.5652 352.587 72.073 352.387 72.6458C352.196 73.2099 352.1 73.8088 352.1 74.4424Z" fill="#7C7C7C"/>
<path d="M370.95 67.9329V69.7816H363.313V67.9329H370.95ZM365.898 64.5089H368.313V78.5304C368.313 79.0077 368.387 79.3679 368.535 79.6109C368.683 79.854 368.874 80.0145 369.109 80.0926C369.344 80.1707 369.597 80.2098 369.866 80.2098C370.066 80.2098 370.275 80.1924 370.493 80.1577C370.719 80.1143 370.889 80.0796 371.002 80.0536L371.015 82.0194C370.824 82.0802 370.571 82.1366 370.258 82.1887C369.953 82.2494 369.583 82.2798 369.148 82.2798C368.557 82.2798 368.013 82.1626 367.517 81.9283C367.021 81.694 366.625 81.3034 366.329 80.7566C366.042 80.2011 365.898 79.4547 365.898 78.5173V64.5089Z" fill="#7C7C7C"/>
<path d="M388.742 79.6109V72.3594C388.742 71.8039 388.629 71.3222 388.403 70.9143C388.185 70.4977 387.854 70.1765 387.411 69.9509C386.967 69.7252 386.418 69.6124 385.766 69.6124C385.157 69.6124 384.621 69.7165 384.16 69.9248C383.708 70.1331 383.351 70.4065 383.09 70.745C382.837 71.0835 382.711 71.448 382.711 71.8386H380.296C380.296 71.3352 380.427 70.8362 380.688 70.3414C380.949 69.8467 381.323 69.3997 381.811 69.0005C382.307 68.5926 382.898 68.2714 383.586 68.0371C384.282 67.7941 385.057 67.6725 385.909 67.6725C386.936 67.6725 387.841 67.8461 388.625 68.1933C389.417 68.5405 390.034 69.0656 390.478 69.7686C390.931 70.4629 391.157 71.3352 391.157 72.3854V78.947C391.157 79.4156 391.196 79.9147 391.275 80.4441C391.362 80.9736 391.488 81.4292 391.653 81.8111V82.0194H389.134C389.012 81.7417 388.916 81.3728 388.846 80.9128C388.777 80.4441 388.742 80.0102 388.742 79.6109ZM389.16 73.479L389.186 75.1715H386.745C386.057 75.1715 385.444 75.2279 384.904 75.3407C384.365 75.4449 383.912 75.6054 383.547 75.8224C383.181 76.0394 382.903 76.3128 382.711 76.6426C382.52 76.9637 382.424 77.3413 382.424 77.7753C382.424 78.2179 382.524 78.6215 382.724 78.986C382.924 79.3506 383.225 79.6413 383.625 79.8583C384.034 80.0666 384.534 80.1707 385.126 80.1707C385.866 80.1707 386.519 80.0145 387.084 79.7021C387.65 79.3896 388.098 79.0077 388.429 78.5564C388.768 78.1051 388.951 77.6668 388.977 77.2415L390.008 78.4002C389.947 78.7647 389.782 79.1683 389.512 79.6109C389.242 80.0536 388.881 80.4789 388.429 80.8868C387.985 81.286 387.454 81.6202 386.836 81.8892C386.227 82.1496 385.54 82.2798 384.774 82.2798C383.816 82.2798 382.977 82.0932 382.254 81.72C381.541 81.3468 380.984 80.8477 380.583 80.2228C380.192 79.5892 379.996 78.8819 379.996 78.1007C379.996 77.3456 380.144 76.6817 380.44 76.1088C380.736 75.5273 381.162 75.0456 381.719 74.6637C382.276 74.2732 382.946 73.9781 383.729 73.7784C384.513 73.5788 385.387 73.479 386.353 73.479H389.16Z" fill="#7C7C7C"/>
<path d="M400.869 67.9329V69.7816H393.233V67.9329H400.869ZM395.817 64.5089H398.232V78.5304C398.232 79.0077 398.306 79.3679 398.454 79.6109C398.602 79.854 398.794 80.0145 399.028 80.0926C399.263 80.1707 399.516 80.2098 399.786 80.2098C399.986 80.2098 400.195 80.1924 400.412 80.1577C400.638 80.1143 400.808 80.0796 400.921 80.0536L400.934 82.0194C400.743 82.0802 400.491 82.1366 400.177 82.1887C399.873 82.2494 399.503 82.2798 399.068 82.2798C398.476 82.2798 397.932 82.1626 397.436 81.9283C396.94 81.694 396.544 81.3034 396.248 80.7566C395.961 80.2011 395.817 79.4547 395.817 78.5173V64.5089Z" fill="#7C7C7C"/>
<path d="M412.957 67.9329V82.0194H410.529V67.9329H412.957ZM410.346 64.1965C410.346 63.8059 410.464 63.4761 410.699 63.207C410.942 62.938 411.299 62.8035 411.769 62.8035C412.23 62.8035 412.583 62.938 412.826 63.207C413.079 63.4761 413.205 63.8059 413.205 64.1965C413.205 64.5697 413.079 64.8908 412.826 65.1599C412.583 65.4203 412.23 65.5505 411.769 65.5505C411.299 65.5505 410.942 65.4203 410.699 65.1599C410.464 64.8908 410.346 64.5697 410.346 64.1965Z" fill="#7C7C7C"/>
<path d="M422.747 67.9329V69.7816H415.111V67.9329H422.747ZM417.695 64.5089H420.11V78.5304C420.11 79.0077 420.184 79.3679 420.332 79.6109C420.48 79.854 420.672 80.0145 420.907 80.0926C421.142 80.1707 421.394 80.2098 421.664 80.2098C421.864 80.2098 422.073 80.1924 422.29 80.1577C422.517 80.1143 422.686 80.0796 422.799 80.0536L422.812 82.0194C422.621 82.0802 422.369 82.1366 422.055 82.1887C421.751 82.2494 421.381 82.2798 420.946 82.2798C420.354 82.2798 419.81 82.1626 419.314 81.9283C418.818 81.694 418.422 81.3034 418.126 80.7566C417.839 80.2011 417.695 79.4547 417.695 78.5173V64.5089Z" fill="#7C7C7C"/>
<path d="M433.804 78.283C433.804 77.9358 433.725 77.6147 433.569 77.3196C433.421 77.0158 433.112 76.7424 432.642 76.4994C432.181 76.2477 431.485 76.0307 430.553 75.8484C429.77 75.6835 429.061 75.4883 428.426 75.2626C427.799 75.0369 427.264 74.7635 426.82 74.4424C426.385 74.1213 426.05 73.7437 425.815 73.3098C425.58 72.8758 425.462 72.3681 425.462 71.7865C425.462 71.2311 425.584 70.706 425.828 70.2112C426.08 69.7165 426.433 69.2782 426.885 68.8963C427.347 68.5144 427.899 68.215 428.543 67.998C429.187 67.781 429.905 67.6725 430.697 67.6725C431.828 67.6725 432.794 67.8722 433.595 68.2714C434.396 68.6707 435.009 69.2044 435.436 69.8727C435.862 70.5324 436.075 71.2658 436.075 72.073H433.66C433.66 71.6824 433.543 71.3048 433.308 70.9403C433.081 70.5671 432.746 70.259 432.303 70.016C431.867 69.7729 431.332 69.6514 430.697 69.6514C430.027 69.6514 429.483 69.7556 429.065 69.9639C428.656 70.1635 428.356 70.4195 428.165 70.732C427.982 71.0445 427.89 71.3743 427.89 71.7214C427.89 71.9818 427.934 72.2162 428.021 72.4245C428.117 72.6241 428.282 72.8107 428.517 72.9843C428.752 73.1492 429.083 73.3054 429.509 73.453C429.936 73.6005 430.479 73.7481 431.141 73.8956C432.298 74.156 433.251 74.4684 434 74.833C434.748 75.1975 435.305 75.6445 435.67 76.1739C436.036 76.7034 436.219 77.3456 436.219 78.1007C436.219 78.717 436.088 79.2811 435.827 79.7932C435.575 80.3053 435.205 80.7479 434.718 81.1211C434.239 81.4857 433.665 81.7721 432.994 81.9804C432.333 82.18 431.589 82.2798 430.762 82.2798C429.518 82.2798 428.465 82.0585 427.603 81.6159C426.742 81.1732 426.089 80.6004 425.645 79.8973C425.201 79.1943 424.979 78.4522 424.979 77.6711H427.407C427.442 78.3307 427.634 78.8558 427.982 79.2464C428.33 79.6283 428.756 79.9017 429.261 80.0666C429.766 80.2228 430.266 80.3009 430.762 80.3009C431.424 80.3009 431.976 80.2141 432.42 80.0406C432.873 79.867 433.216 79.6283 433.451 79.3245C433.686 79.0207 433.804 78.6736 433.804 78.283Z" fill="#7C7C7C"/>
<path d="M446.009 62.0223H448.437V79.2855L448.228 82.0194H446.009V62.0223ZM457.979 74.859V75.1324C457.979 76.1566 457.858 77.1069 457.614 77.9836C457.37 78.8515 457.013 79.6066 456.543 80.2489C456.074 80.8911 455.499 81.3902 454.82 81.746C454.142 82.1019 453.363 82.2798 452.484 82.2798C451.587 82.2798 450.8 82.1279 450.121 81.8242C449.451 81.5117 448.885 81.0647 448.424 80.4832C447.963 79.9017 447.593 79.1987 447.314 78.3741C447.045 77.5496 446.858 76.6209 446.753 75.5881V74.3903C446.858 73.3488 447.045 72.4158 447.314 71.5913C447.593 70.7667 447.963 70.0637 448.424 69.4822C448.885 68.892 449.451 68.445 450.121 68.1412C450.791 67.8288 451.57 67.6725 452.458 67.6725C453.345 67.6725 454.133 67.8461 454.82 68.1933C455.508 68.5318 456.082 69.0178 456.543 69.6514C457.013 70.285 457.37 71.0445 457.614 71.9297C457.858 72.8064 457.979 73.7828 457.979 74.859ZM455.551 75.1324V74.859C455.551 74.156 455.486 73.4964 455.356 72.8801C455.225 72.2552 455.016 71.7084 454.729 71.2397C454.442 70.7624 454.063 70.3892 453.593 70.1201C453.123 69.8424 452.545 69.7035 451.857 69.7035C451.248 69.7035 450.717 69.8077 450.265 70.016C449.821 70.2243 449.442 70.5063 449.129 70.8622C448.816 71.2094 448.559 71.6086 448.359 72.0599C448.167 72.5026 448.024 72.9626 447.928 73.4399V76.5775C448.067 77.1851 448.293 77.7709 448.607 78.3351C448.929 78.8906 449.355 79.3462 449.886 79.7021C450.426 80.0579 451.091 80.2358 451.883 80.2358C452.536 80.2358 453.093 80.1056 453.554 79.8453C454.024 79.5762 454.403 79.2073 454.69 78.7387C454.986 78.27 455.203 77.7275 455.343 77.1113C455.482 76.4951 455.551 75.8354 455.551 75.1324Z" fill="#7C7C7C"/>
<path d="M466.895 82.2798C465.912 82.2798 465.02 82.1149 464.219 81.7851C463.427 81.4466 462.744 80.9736 462.17 80.366C461.604 79.7585 461.169 79.0381 460.864 78.2049C460.56 77.3717 460.407 76.4603 460.407 75.4709V74.9241C460.407 73.7784 460.577 72.7586 460.917 71.8646C461.256 70.962 461.717 70.1982 462.3 69.5733C462.883 68.9484 463.545 68.4754 464.284 68.1542C465.024 67.8331 465.79 67.6725 466.582 67.6725C467.591 67.6725 468.462 67.8461 469.193 68.1933C469.932 68.5405 470.537 69.0265 471.007 69.6514C471.477 70.2677 471.825 70.9967 472.051 71.8386C472.278 72.6718 472.391 73.5832 472.391 74.5726V75.6532H461.843V73.6873H469.976V73.505C469.941 72.8801 469.811 72.2726 469.584 71.6824C469.367 71.0922 469.019 70.6061 468.54 70.2243C468.061 69.8424 467.409 69.6514 466.582 69.6514C466.034 69.6514 465.529 69.7686 465.068 70.0029C464.606 70.2286 464.21 70.5671 463.88 71.0184C463.549 71.4697 463.292 72.0209 463.11 72.6718C462.927 73.3228 462.835 74.0735 462.835 74.9241V75.4709C462.835 76.1392 462.927 76.7685 463.11 77.3587C463.301 77.9402 463.575 78.4522 463.932 78.8949C464.297 79.3375 464.737 79.6847 465.25 79.9364C465.773 80.1881 466.364 80.314 467.026 80.314C467.879 80.314 468.601 80.1404 469.193 79.7932C469.784 79.446 470.302 78.9817 470.746 78.4002L472.208 79.5589C471.903 80.0189 471.516 80.4572 471.046 80.8738C470.576 81.2904 469.998 81.6289 469.31 81.8892C468.631 82.1496 467.826 82.2798 466.895 82.2798Z" fill="#7C7C7C"/>
<path d="M483.434 78.283C483.434 77.9358 483.356 77.6147 483.199 77.3196C483.051 77.0158 482.742 76.7424 482.273 76.4994C481.811 76.2477 481.115 76.0307 480.184 75.8484C479.401 75.6835 478.691 75.4883 478.056 75.2626C477.43 75.0369 476.894 74.7635 476.451 74.4424C476.015 74.1213 475.68 73.7437 475.445 73.3098C475.21 72.8758 475.093 72.3681 475.093 71.7865C475.093 71.2311 475.215 70.706 475.458 70.2112C475.711 69.7165 476.063 69.2782 476.516 68.8963C476.977 68.5144 477.53 68.215 478.174 67.998C478.818 67.781 479.536 67.6725 480.328 67.6725C481.459 67.6725 482.425 67.8722 483.225 68.2714C484.026 68.6707 484.64 69.2044 485.066 69.8727C485.492 70.5324 485.706 71.2658 485.706 72.073H483.291C483.291 71.6824 483.173 71.3048 482.938 70.9403C482.712 70.5671 482.377 70.259 481.933 70.016C481.498 69.7729 480.963 69.6514 480.328 69.6514C479.657 69.6514 479.114 69.7556 478.696 69.9639C478.287 70.1635 477.987 70.4195 477.795 70.732C477.612 71.0445 477.521 71.3743 477.521 71.7214C477.521 71.9818 477.564 72.2162 477.651 72.4245C477.747 72.6241 477.913 72.8107 478.148 72.9843C478.382 73.1492 478.713 73.3054 479.14 73.453C479.566 73.6005 480.11 73.7481 480.771 73.8956C481.929 74.156 482.882 74.4684 483.63 74.833C484.379 75.1975 484.936 75.6445 485.301 76.1739C485.667 76.7034 485.849 77.3456 485.849 78.1007C485.849 78.717 485.719 79.2811 485.458 79.7932C485.205 80.3053 484.835 80.7479 484.348 81.1211C483.869 81.4857 483.295 81.7721 482.625 81.9804C481.964 82.18 481.22 82.2798 480.393 82.2798C479.148 82.2798 478.095 82.0585 477.234 81.6159C476.372 81.1732 475.72 80.6004 475.276 79.8973C474.832 79.1943 474.61 78.4522 474.61 77.6711H477.038C477.073 78.3307 477.264 78.8558 477.612 79.2464C477.96 79.6283 478.387 79.9017 478.892 80.0666C479.396 80.2228 479.897 80.3009 480.393 80.3009C481.054 80.3009 481.607 80.2141 482.051 80.0406C482.503 79.867 482.847 79.6283 483.082 79.3245C483.317 79.0207 483.434 78.6736 483.434 78.283Z" fill="#7C7C7C"/>
<path d="M494.935 67.9329V69.7816H487.298V67.9329H494.935ZM489.883 64.5089H492.298V78.5304C492.298 79.0077 492.372 79.3679 492.52 79.6109C492.668 79.854 492.859 80.0145 493.094 80.0926C493.329 80.1707 493.581 80.2098 493.851 80.2098C494.051 80.2098 494.26 80.1924 494.478 80.1577C494.704 80.1143 494.874 80.0796 494.987 80.0536L495 82.0194C494.809 82.0802 494.556 82.1366 494.243 82.1887C493.938 82.2494 493.568 82.2798 493.133 82.2798C492.542 82.2798 491.998 82.1626 491.502 81.9283C491.006 81.694 490.61 81.3034 490.314 80.7566C490.027 80.2011 489.883 79.4547 489.883 78.5173V64.5089Z" fill="#7C7C7C"/>
<path d="M194.701 188.623V190.667H184.637V188.623H194.701ZM185.146 171.712V190.667H182.627V171.712H185.146ZM193.37 179.861V181.905H184.637V179.861H193.37ZM194.571 171.712V173.769H184.637V171.712H194.571Z" fill="#7C7C7C"/>
<path d="M212.441 171.712V190.667H209.909L200.341 176.047V190.667H197.821V171.712H200.341L209.948 186.371V171.712H212.441Z" fill="#7C7C7C"/>
<path d="M230.952 181.228V188.167C230.717 188.515 230.343 188.905 229.829 189.339C229.316 189.764 228.606 190.138 227.701 190.459C226.805 190.771 225.648 190.928 224.229 190.928C223.072 190.928 222.006 190.728 221.031 190.329C220.065 189.921 219.225 189.331 218.511 188.558C217.807 187.777 217.258 186.831 216.867 185.72C216.484 184.6 216.292 183.333 216.292 181.918V180.447C216.292 179.033 216.458 177.77 216.788 176.659C217.128 175.548 217.624 174.606 218.277 173.834C218.929 173.052 219.73 172.462 220.678 172.063C221.627 171.655 222.715 171.451 223.942 171.451C225.395 171.451 226.609 171.703 227.584 172.206C228.567 172.701 229.333 173.387 229.881 174.263C230.438 175.14 230.795 176.138 230.952 177.258H228.432C228.319 176.572 228.093 175.947 227.754 175.383C227.423 174.819 226.949 174.367 226.331 174.029C225.713 173.682 224.917 173.508 223.942 173.508C223.063 173.508 222.301 173.669 221.657 173.99C221.013 174.311 220.483 174.771 220.065 175.37C219.647 175.969 219.334 176.693 219.125 177.544C218.925 178.395 218.825 179.354 218.825 180.421V181.918C218.825 183.012 218.951 183.988 219.203 184.848C219.464 185.707 219.834 186.44 220.313 187.048C220.792 187.647 221.362 188.102 222.023 188.415C222.693 188.727 223.433 188.884 224.242 188.884C225.138 188.884 225.865 188.81 226.422 188.662C226.979 188.506 227.414 188.324 227.727 188.115C228.041 187.898 228.28 187.694 228.445 187.504V183.259H224.046V181.228H230.952Z" fill="#7C7C7C"/>
<path d="M246.655 188.623V190.667H237.152V188.623H246.655ZM237.648 171.712V190.667H235.129V171.712H237.648Z" fill="#7C7C7C"/>
<path d="M252.242 171.712V190.667H249.723V171.712H252.242Z" fill="#7C7C7C"/>
<path d="M266.954 185.876C266.954 185.434 266.884 185.043 266.745 184.704C266.615 184.357 266.38 184.045 266.04 183.767C265.71 183.489 265.248 183.225 264.657 182.973C264.074 182.721 263.334 182.465 262.437 182.205C261.498 181.927 260.649 181.619 259.892 181.28C259.135 180.933 258.487 180.538 257.947 180.096C257.407 179.653 256.994 179.145 256.707 178.573C256.42 178 256.276 177.344 256.276 176.607C256.276 175.869 256.428 175.188 256.733 174.563C257.038 173.938 257.473 173.395 258.038 172.935C258.613 172.467 259.296 172.102 260.088 171.842C260.88 171.581 261.763 171.451 262.738 171.451C264.165 171.451 265.375 171.725 266.367 172.271C267.367 172.809 268.129 173.517 268.651 174.393C269.173 175.261 269.434 176.19 269.434 177.18H266.928C266.928 176.468 266.776 175.839 266.471 175.292C266.167 174.736 265.705 174.302 265.087 173.99C264.47 173.669 263.686 173.508 262.738 173.508C261.841 173.508 261.102 173.643 260.519 173.912C259.936 174.181 259.5 174.545 259.213 175.005C258.935 175.465 258.795 175.99 258.795 176.581C258.795 176.98 258.878 177.344 259.043 177.674C259.218 177.995 259.483 178.295 259.84 178.573C260.205 178.85 260.667 179.106 261.223 179.341C261.789 179.575 262.464 179.801 263.247 180.018C264.326 180.321 265.257 180.66 266.04 181.033C266.824 181.406 267.468 181.827 267.972 182.296C268.486 182.756 268.864 183.281 269.108 183.871C269.36 184.453 269.487 185.112 269.487 185.85C269.487 186.623 269.33 187.321 269.017 187.946C268.703 188.571 268.255 189.105 267.672 189.548C267.089 189.99 266.388 190.333 265.57 190.576C264.761 190.81 263.856 190.928 262.855 190.928C261.976 190.928 261.11 190.806 260.258 190.563C259.413 190.32 258.643 189.955 257.947 189.469C257.259 188.983 256.707 188.384 256.289 187.673C255.88 186.952 255.676 186.119 255.676 185.173H258.182C258.182 185.824 258.308 186.384 258.561 186.853C258.813 187.313 259.157 187.694 259.592 187.998C260.036 188.302 260.536 188.528 261.093 188.675C261.659 188.814 262.246 188.884 262.855 188.884C263.734 188.884 264.478 188.762 265.087 188.519C265.697 188.276 266.158 187.929 266.471 187.477C266.793 187.026 266.954 186.492 266.954 185.876Z" fill="#7C7C7C"/>
<path d="M285.112 179.861V181.905H274.826V179.861H285.112ZM275.217 171.712V190.667H272.698V171.712H275.217ZM287.305 171.712V190.667H284.799V171.712H287.305Z" fill="#7C7C7C"/>
<path d="M309.94 188.623V190.667H300.437V188.623H309.94ZM300.933 171.712V190.667H298.414V171.712H300.933Z" fill="#7C7C7C"/>
<path d="M324.9 188.623V190.667H314.835V188.623H324.9ZM315.345 171.712V190.667H312.825V171.712H315.345ZM323.568 179.861V181.905H314.835V179.861H323.568ZM324.769 171.712V173.769H314.835V171.712H324.769Z" fill="#7C7C7C"/>
<path d="M335.056 173.391L328.764 190.667H326.192L333.437 171.712H335.095L335.056 173.391ZM340.329 190.667L334.025 173.391L333.985 171.712H335.643L342.914 190.667H340.329ZM340.003 183.65V185.707H329.325V183.65H340.003Z" fill="#7C7C7C"/>
<path d="M345.46 171.712H351.752C353.179 171.712 354.384 171.929 355.367 172.362C356.36 172.796 357.112 173.439 357.626 174.289C358.148 175.131 358.409 176.168 358.409 177.401C358.409 178.269 358.231 179.063 357.874 179.783C357.526 180.495 357.021 181.103 356.36 181.606C355.707 182.101 354.924 182.47 354.01 182.713L353.305 182.986H347.392L347.365 180.942H351.83C352.735 180.942 353.488 180.786 354.088 180.473C354.689 180.152 355.141 179.723 355.446 179.184C355.75 178.646 355.903 178.052 355.903 177.401C355.903 176.672 355.759 176.034 355.472 175.487C355.185 174.94 354.732 174.519 354.114 174.224C353.505 173.92 352.718 173.769 351.752 173.769H347.979V190.667H345.46V171.712ZM356.568 190.667L351.947 182.075L354.571 182.062L359.258 190.511V190.667H356.568Z" fill="#7C7C7C"/>
<path d="M376.554 171.712V190.667H374.021L364.453 176.047V190.667H361.934V171.712H364.453L374.06 186.371V171.712H376.554Z" fill="#7C7C7C"/>
<path d="M383.72 171.712V190.667H381.201V171.712H383.72Z" fill="#7C7C7C"/>
<path d="M402.922 171.712V190.667H400.39L390.822 176.047V190.667H388.302V171.712H390.822L400.429 186.371V171.712H402.922Z" fill="#7C7C7C"/>
<path d="M421.433 181.228V188.167C421.198 188.515 420.824 188.905 420.31 189.339C419.797 189.764 419.087 190.138 418.182 190.459C417.286 190.771 416.129 190.928 414.71 190.928C413.553 190.928 412.487 190.728 411.512 190.329C410.546 189.921 409.706 189.331 408.992 188.558C408.288 187.777 407.739 186.831 407.348 185.72C406.965 184.6 406.773 183.333 406.773 181.918V180.447C406.773 179.033 406.939 177.77 407.269 176.659C407.609 175.548 408.105 174.606 408.758 173.834C409.41 173.052 410.211 172.462 411.159 172.063C412.108 171.655 413.196 171.451 414.423 171.451C415.876 171.451 417.09 171.703 418.065 172.206C419.048 172.701 419.814 173.387 420.362 174.263C420.919 175.14 421.276 176.138 421.433 177.258H418.913C418.8 176.572 418.574 175.947 418.235 175.383C417.904 174.819 417.43 174.367 416.812 174.029C416.194 173.682 415.398 173.508 414.423 173.508C413.544 173.508 412.782 173.669 412.138 173.99C411.494 174.311 410.964 174.771 410.546 175.37C410.128 175.969 409.815 176.693 409.606 177.544C409.406 178.395 409.306 179.354 409.306 180.421V181.918C409.306 183.012 409.432 183.988 409.684 184.848C409.945 185.707 410.315 186.44 410.794 187.048C411.273 187.647 411.843 188.102 412.504 188.415C413.174 188.727 413.914 188.884 414.723 188.884C415.619 188.884 416.346 188.81 416.903 188.662C417.46 188.506 417.895 188.324 418.208 188.115C418.522 187.898 418.761 187.694 418.926 187.504V183.259H414.527V181.228H421.433Z" fill="#7C7C7C"/>
<path d="M12.5748 188.623V190.667H2.51028V188.623H12.5748ZM3.01938 171.712V190.667H0.5V171.712H3.01938ZM11.2433 179.861V181.905H2.51028V179.861H11.2433ZM12.4442 171.712V173.769H2.51028V171.712H12.4442Z" fill="#7C7C7C"/>
<path d="M20.8378 190.667H16.8695L16.8956 188.623H20.8378C22.1954 188.623 23.3267 188.341 24.2318 187.777C25.1369 187.204 25.8157 186.406 26.2682 185.381C26.7294 184.349 26.96 183.142 26.96 181.762V180.603C26.96 179.519 26.8295 178.555 26.5684 177.713C26.3074 176.863 25.9244 176.147 25.4197 175.565C24.915 174.975 24.2971 174.528 23.5661 174.224C22.8437 173.92 22.0127 173.769 21.0728 173.769H16.7911V171.712H21.0728C22.3172 171.712 23.4529 171.92 24.4798 172.336C25.5067 172.744 26.39 173.339 27.1297 174.12C27.8782 174.892 28.4525 175.83 28.8528 176.932C29.2532 178.026 29.4533 179.258 29.4533 180.63V181.762C29.4533 183.134 29.2532 184.37 28.8528 185.473C28.4525 186.566 27.8738 187.499 27.1167 188.272C26.3683 189.044 25.4632 189.639 24.4015 190.055C23.3485 190.463 22.1606 190.667 20.8378 190.667ZM18.214 171.712V190.667H15.6946V171.712H18.214Z" fill="#7C7C7C"/>
<path d="M44.1127 171.712H46.6191V184.535C46.6191 185.959 46.3014 187.143 45.6661 188.089C45.0309 189.035 44.1867 189.747 43.1337 190.225C42.0894 190.693 40.9537 190.928 39.7267 190.928C38.4387 190.928 37.2725 190.693 36.2282 190.225C35.1926 189.747 34.3703 189.035 33.7611 188.089C33.1606 187.143 32.8604 185.959 32.8604 184.535V171.712H35.3536V184.535C35.3536 185.525 35.5364 186.341 35.9019 186.983C36.2674 187.625 36.7765 188.102 37.4292 188.415C38.0906 188.727 38.8564 188.884 39.7267 188.884C40.6056 188.884 41.3714 188.727 42.0241 188.415C42.6855 188.102 43.199 187.625 43.5645 186.983C43.93 186.341 44.1127 185.525 44.1127 184.535V171.712Z" fill="#7C7C7C"/>
<path d="M62.0487 184.639H64.555C64.4244 185.837 64.0807 186.909 63.5237 187.855C62.9668 188.801 62.1792 189.552 61.161 190.107C60.1428 190.654 58.8722 190.928 57.3493 190.928C56.2354 190.928 55.2215 190.719 54.3078 190.303C53.4027 189.886 52.6238 189.296 51.9711 188.532C51.3184 187.76 50.8137 186.835 50.4569 185.759C50.1088 184.674 49.9347 183.468 49.9347 182.14V180.252C49.9347 178.924 50.1088 177.722 50.4569 176.646C50.8137 175.561 51.3228 174.632 51.9842 173.86C52.6543 173.087 53.4593 172.493 54.3991 172.076C55.339 171.659 56.3964 171.451 57.5712 171.451C59.0071 171.451 60.2211 171.72 61.2132 172.258C62.2053 172.796 62.9755 173.543 63.5237 174.498C64.0807 175.444 64.4244 176.542 64.555 177.791H62.0487C61.9268 176.906 61.7006 176.147 61.3699 175.513C61.0392 174.871 60.5692 174.376 59.96 174.029C59.3509 173.682 58.5546 173.508 57.5712 173.508C56.7271 173.508 55.983 173.669 55.339 173.99C54.7037 174.311 54.1685 174.767 53.7334 175.357C53.307 175.947 52.985 176.654 52.7674 177.479C52.5498 178.303 52.4411 179.219 52.4411 180.226V182.14C52.4411 183.068 52.5368 183.941 52.7282 184.757C52.9284 185.572 53.2286 186.288 53.629 186.905C54.0293 187.521 54.5384 188.007 55.1562 188.363C55.7741 188.71 56.5051 188.884 57.3493 188.884C58.4197 188.884 59.2725 188.714 59.9078 188.376C60.5431 188.037 61.0218 187.551 61.3438 186.918C61.6744 186.284 61.9094 185.525 62.0487 184.639Z" fill="#7C7C7C"/>
<path d="M75.0241 173.391L68.7322 190.667H66.1606L73.4055 171.712H75.0633L75.0241 173.391ZM80.2979 190.667L73.9929 173.391L73.9537 171.712H75.6115L82.8825 190.667H80.2979ZM79.9715 183.65V185.707H69.2935V183.65H79.9715Z" fill="#7C7C7C"/>
<path d="M90.754 171.712V190.667H88.2737V171.712H90.754ZM96.8631 171.712V173.769H82.1776V171.712H96.8631Z" fill="#7C7C7C"/>
<path d="M102.385 171.712V190.667H99.8655V171.712H102.385Z" fill="#7C7C7C"/>
<path d="M121.6 180.59V181.788C121.6 183.212 121.422 184.487 121.065 185.616C120.708 186.744 120.195 187.703 119.525 188.493C118.854 189.283 118.049 189.886 117.11 190.303C116.178 190.719 115.134 190.928 113.977 190.928C112.854 190.928 111.823 190.719 110.883 190.303C109.952 189.886 109.142 189.283 108.455 188.493C107.776 187.703 107.25 186.744 106.875 185.616C106.501 184.487 106.314 183.212 106.314 181.788V180.59C106.314 179.167 106.497 177.896 106.862 176.776C107.237 175.648 107.763 174.689 108.442 173.899C109.121 173.1 109.926 172.493 110.857 172.076C111.797 171.659 112.828 171.451 113.951 171.451C115.108 171.451 116.152 171.659 117.083 172.076C118.023 172.493 118.828 173.1 119.498 173.899C120.177 174.689 120.695 175.648 121.052 176.776C121.417 177.896 121.6 179.167 121.6 180.59ZM119.107 181.788V180.564C119.107 179.436 118.989 178.438 118.754 177.57C118.528 176.702 118.193 175.973 117.749 175.383C117.305 174.793 116.761 174.346 116.117 174.042C115.482 173.738 114.76 173.586 113.951 173.586C113.167 173.586 112.458 173.738 111.823 174.042C111.196 174.346 110.657 174.793 110.204 175.383C109.76 175.973 109.417 176.702 109.173 177.57C108.929 178.438 108.807 179.436 108.807 180.564V181.788C108.807 182.925 108.929 183.932 109.173 184.809C109.417 185.677 109.765 186.41 110.217 187.009C110.678 187.599 111.222 188.046 111.849 188.35C112.484 188.654 113.193 188.805 113.977 188.805C114.795 188.805 115.521 188.654 116.157 188.35C116.792 188.046 117.327 187.599 117.762 187.009C118.206 186.41 118.541 185.677 118.767 184.809C118.994 183.932 119.107 182.925 119.107 181.788Z" fill="#7C7C7C"/>
<path d="M139.993 171.712V190.667H137.46L127.892 176.047V190.667H125.373V171.712H127.892L137.5 186.371V171.712H139.993Z" fill="#7C7C7C"/>
<line x1="161.75" y1="169" x2="161.75" y2="194" stroke="#7C7C7C" stroke-width="1.5"/>
</svg>
